<?xml version="1.0" standalone="no"?><svg xmlns="http://www.w3.org/2000/svg" viewBox="0 0 1440 320"><path fill="#12D029" fill-opacity="1" d="M0,320L40,304C80,288,160,256,240,229.3C320,203,400,181,480,192C560,203,640,245,720,256C800,267,880,245,960,202.7C1040,160,1120,96,1200,90.7C1280,85,1360,139,1400,165.3L1440,192L1440,320L1400,320C1360,320,1280,320,1200,320C1120,320,1040,320,960,320C880,320,800,320,720,320C640,320,560,320,480,320C400,320,320,320,240,320C160,320,80,320,40,320L0,320Z"></path></svg>